<svg width="333" height="187" viewBox="0 0 333 187" fill="none" xmlns="http://www.w3.org/2000/svg">
<g filter="url(#filter0_d_6_19)">
<g filter="url(#filter1_dd_6_19)">
<g filter="url(#filter2_f_6_19)">
<rect x="10" y="10" width="313" height="167" rx="10" fill="black"/>
</g>
<path d="M105.634 98.2207L109.735 82.0049H116.957L121.103 98.2207H123.036V106.204H120.004L119.521 102H107.187L106.718 106.204H103.7V98.2207H105.634ZM109.691 98.2207H116.107L113.295 85.7842H112.504L109.691 98.2207ZM137.699 95.335H128.178C128.168 95.5986 128.163 95.8281 128.163 96.0234C128.163 97.0781 128.441 97.874 128.998 98.4111C129.564 98.9482 130.238 99.2168 131.02 99.2168C132.475 99.2168 133.349 98.4404 133.642 96.8877L137.597 97.1807C136.493 100.599 134.252 102.308 130.873 102.308C129.398 102.308 128.144 102.015 127.108 101.429C126.083 100.833 125.233 99.9688 124.56 98.8359C123.896 97.7031 123.563 96.3457 123.563 94.7637C123.563 92.4102 124.232 90.5107 125.57 89.0654C126.918 87.6201 128.646 86.8975 130.756 86.8975C132.66 86.8975 134.291 87.5713 135.648 88.9189C137.016 90.2568 137.699 92.3955 137.699 95.335ZM128.163 92.8008H133.422C133.285 90.7695 132.45 89.7539 130.917 89.7539C129.276 89.7539 128.358 90.7695 128.163 92.8008ZM142.46 102V90.3838H138.373V87.2051H150.78V90.3838H146.811V102H142.46ZM165.707 95.335H156.186C156.176 95.5986 156.171 95.8281 156.171 96.0234C156.171 97.0781 156.449 97.874 157.006 98.4111C157.572 98.9482 158.246 99.2168 159.027 99.2168C160.482 99.2168 161.356 98.4404 161.649 96.8877L165.604 97.1807C164.501 100.599 162.26 102.308 158.881 102.308C157.406 102.308 156.151 102.015 155.116 101.429C154.091 100.833 153.241 99.9688 152.567 98.8359C151.903 97.7031 151.571 96.3457 151.571 94.7637C151.571 92.4102 152.24 90.5107 153.578 89.0654C154.926 87.6201 156.654 86.8975 158.764 86.8975C160.668 86.8975 162.299 87.5713 163.656 88.9189C165.023 90.2568 165.707 92.3955 165.707 95.335ZM156.171 92.8008H161.43C161.293 90.7695 160.458 89.7539 158.925 89.7539C157.284 89.7539 156.366 90.7695 156.171 92.8008ZM177.982 92.2881L183.08 102H178.51L175.067 95.3936L172.841 97.752V102H168.476V87.2051H172.841V90.8965C172.841 91.4922 172.821 92.3613 172.782 93.5039C173.124 93.0059 173.539 92.498 174.027 91.9805L178.495 87.2051H182.538L177.982 92.2881ZM186.347 102V90.3838H182.26V87.2051H194.667V90.3838H190.697V102H186.347ZM200.526 100.462V102H196.161V87.2051H200.526V92.8447C200.526 93.8408 200.487 94.9492 200.409 96.1699C201.151 94.9004 201.801 93.8799 202.357 93.1084L205.258 89.0947V87.2051H209.623V102H205.258V96.7266C205.258 95.5156 205.302 94.2754 205.39 93.0059C204.862 94.2559 204.252 95.3545 203.559 96.3018L200.526 100.462ZM213.212 102V87.2051H221.679C222.675 87.2051 223.495 87.3125 224.14 87.5273C224.794 87.7422 225.341 88.1621 225.78 88.7871C226.229 89.4023 226.454 90.1152 226.454 90.9258C226.454 92.6348 225.39 93.7432 223.261 94.251C225.712 94.7783 226.938 96.0283 226.938 98.001C226.938 99.2412 226.508 100.218 225.648 100.931C224.799 101.644 223.598 102 222.045 102H213.212ZM217.577 93.2256H220.668C221.781 93.2256 222.338 92.6934 222.338 91.6289C222.338 90.5449 221.781 90.0029 220.668 90.0029H217.577V93.2256ZM217.577 99.0557H220.624C221.317 99.0557 221.811 98.9141 222.104 98.6309C222.406 98.3477 222.558 97.874 222.558 97.21C222.558 96.6631 222.431 96.2188 222.177 95.877C221.933 95.5352 221.415 95.3643 220.624 95.3643H217.577V99.0557Z" fill="#F2E3E3"/>
</g>
</g>
<defs>
<filter id="filter0_d_6_19" x="6" y="10" width="321" height="175" filterUnits="userSpaceOnUse" color-interpolation-filters="sRGB">
<feFlood flood-opacity="0" result="BackgroundImageFix"/>
<feColorMatrix in="SourceAlpha" type="matrix" values="0 0 0 0 0 0 0 0 0 0 0 0 0 0 0 0 0 0 127 0" result="hardAlpha"/>
<feOffset dy="4"/>
<feGaussianBlur stdDeviation="2"/>
<feComposite in2="hardAlpha" operator="out"/>
<feColorMatrix type="matrix" values="0 0 0 0 0 0 0 0 0 0 0 0 0 0 0 0 0 0 0.25 0"/>
<feBlend mode="normal" in2="BackgroundImageFix" result="effect1_dropShadow_6_19"/>
<feBlend mode="normal" in="SourceGraphic" in2="effect1_dropShadow_6_19" result="shape"/>
</filter>
<filter id="filter1_dd_6_19" x="6" y="10" width="321" height="175" filterUnits="userSpaceOnUse" color-interpolation-filters="sRGB">
<feFlood flood-opacity="0" result="BackgroundImageFix"/>
<feColorMatrix in="SourceAlpha" type="matrix" values="0 0 0 0 0 0 0 0 0 0 0 0 0 0 0 0 0 0 127 0" result="hardAlpha"/>
<feOffset dy="4"/>
<feGaussianBlur stdDeviation="2"/>
<feComposite in2="hardAlpha" operator="out"/>
<feColorMatrix type="matrix" values="0 0 0 0 0 0 0 0 0 0 0 0 0 0 0 0 0 0 0.25 0"/>
<feBlend mode="normal" in2="BackgroundImageFix" result="effect1_dropShadow_6_19"/>
<feColorMatrix in="SourceAlpha" type="matrix" values="0 0 0 0 0 0 0 0 0 0 0 0 0 0 0 0 0 0 127 0" result="hardAlpha"/>
<feOffset dy="4"/>
<feGaussianBlur stdDeviation="2"/>
<feComposite in2="hardAlpha" operator="out"/>
<feColorMatrix type="matrix" values="0 0 0 0 0 0 0 0 0 0 0 0 0 0 0 0 0 0 0.25 0"/>
<feBlend mode="normal" in2="effect1_dropShadow_6_19" result="effect2_dropShadow_6_19"/>
<feBlend mode="normal" in="SourceGraphic" in2="effect2_dropShadow_6_19" result="shape"/>
</filter>
<filter id="filter2_f_6_19" x="0" y="0" width="333" height="187" filterUnits="userSpaceOnUse" color-interpolation-filters="sRGB">
<feFlood flood-opacity="0" result="BackgroundImageFix"/>
<feBlend mode="normal" in="SourceGraphic" in2="BackgroundImageFix" result="shape"/>
<feGaussianBlur stdDeviation="5" result="effect1_foregroundBlur_6_19"/>
</filter>
</defs>
</svg>
