<svg width="333" height="187" viewBox="0 0 333 187" fill="none" xmlns="http://www.w3.org/2000/svg">
<g filter="url(#filter0_d_6_14)">
<g filter="url(#filter1_dd_6_14)">
<g filter="url(#filter2_f_6_14)">
<rect x="10" y="10" width="313" height="167" rx="10" fill="black"/>
</g>
<path d="M118.699 95.2207L122.801 79.0049H130.022L134.168 95.2207H136.102V103.204H133.069L132.586 99H120.252L119.783 103.204H116.766V95.2207H118.699ZM122.757 95.2207H129.173L126.36 82.7842H125.569L122.757 95.2207ZM137.479 103.995V84.2051H141.492V86.373C142.234 84.7227 143.533 83.8975 145.389 83.8975C146.99 83.8975 148.299 84.542 149.314 85.8311C150.34 87.1104 150.853 88.9756 150.853 91.4268C150.853 94.0342 150.335 96.002 149.3 97.3301C148.274 98.6484 146.937 99.3076 145.286 99.3076C143.616 99.3076 142.425 98.6582 141.712 97.3594V103.995H137.479ZM141.712 92.5254C141.712 93.5703 141.775 94.293 141.902 94.6934C142.029 95.0938 142.298 95.4551 142.708 95.7773C143.118 96.0898 143.562 96.2461 144.041 96.2461C144.637 96.2461 145.169 95.9434 145.638 95.3379C146.106 94.7227 146.341 93.375 146.341 91.2949C146.341 88.375 145.569 86.915 144.026 86.915C143.44 86.915 142.908 87.1738 142.43 87.6914C141.951 88.209 141.712 89.0879 141.712 90.3281V92.5254ZM166.6 99H162.366C162.229 98.4141 162.161 97.6426 162.161 96.6855C161.419 97.7402 160.677 98.4434 159.935 98.7949C159.202 99.1367 158.367 99.3076 157.43 99.3076C156.043 99.3076 154.92 98.9316 154.061 98.1797C153.211 97.4277 152.786 96.417 152.786 95.1475C152.786 94.2197 153.035 93.3652 153.533 92.584C154.031 91.8027 154.832 91.1924 155.936 90.7529C157.039 90.3037 159.051 89.9717 161.971 89.7568V88.9072C161.971 87.4717 161.253 86.7539 159.817 86.7539C158.284 86.7539 157.43 87.4717 157.254 88.9072L153.226 88.5264C153.489 86.8467 154.285 85.6553 155.613 84.9521C156.941 84.249 158.445 83.8975 160.125 83.8975C161.131 83.8975 162.078 84.0146 162.967 84.249C163.855 84.4834 164.549 84.835 165.047 85.3037C165.545 85.7725 165.882 86.2705 166.058 86.7979C166.233 87.3154 166.321 88.2236 166.321 89.5225V96.2314C166.321 97.5205 166.414 98.4434 166.6 99ZM161.971 91.9102C158.914 92.2129 157.386 93.1357 157.386 94.6787C157.386 95.1963 157.547 95.6455 157.869 96.0264C158.191 96.3975 158.65 96.583 159.246 96.583C160.018 96.583 160.662 96.2656 161.18 95.6309C161.707 94.9863 161.971 94.1953 161.971 93.2578V91.9102ZM169.939 99V84.2051H176.253L179.476 96.0264L182.815 84.2051H188.733V99H184.749V87.1934H184.544L181.189 99H176.854L173.528 87.1934H173.323V99H169.939ZM205.271 99H201.038C200.901 98.4141 200.833 97.6426 200.833 96.6855C200.091 97.7402 199.349 98.4434 198.606 98.7949C197.874 99.1367 197.039 99.3076 196.102 99.3076C194.715 99.3076 193.592 98.9316 192.732 98.1797C191.883 97.4277 191.458 96.417 191.458 95.1475C191.458 94.2197 191.707 93.3652 192.205 92.584C192.703 91.8027 193.504 91.1924 194.607 90.7529C195.711 90.3037 197.723 89.9717 200.643 89.7568V88.9072C200.643 87.4717 199.925 86.7539 198.489 86.7539C196.956 86.7539 196.102 87.4717 195.926 88.9072L191.897 88.5264C192.161 86.8467 192.957 85.6553 194.285 84.9521C195.613 84.249 197.117 83.8975 198.797 83.8975C199.803 83.8975 200.75 84.0146 201.639 84.249C202.527 84.4834 203.221 84.835 203.719 85.3037C204.217 85.7725 204.554 86.2705 204.729 86.7979C204.905 87.3154 204.993 88.2236 204.993 89.5225V96.2314C204.993 97.5205 205.086 98.4434 205.271 99ZM200.643 91.9102C197.586 92.2129 196.058 93.1357 196.058 94.6787C196.058 95.1963 196.219 95.6455 196.541 96.0264C196.863 96.3975 197.322 96.583 197.918 96.583C198.689 96.583 199.334 96.2656 199.852 95.6309C200.379 94.9863 200.643 94.1953 200.643 93.2578V91.9102Z" fill="#F2E3E3"/>
<path d="M218.061 125.061C218.646 124.475 218.646 123.525 218.061 122.939L208.515 113.393C207.929 112.808 206.979 112.808 206.393 113.393C205.808 113.979 205.808 114.929 206.393 115.515L214.879 124L206.393 132.485C205.808 133.071 205.808 134.021 206.393 134.607C206.979 135.192 207.929 135.192 208.515 134.607L218.061 125.061ZM117 125.5H217V122.5H117V125.5Z" fill="black"/>
</g>
</g>
<defs>
<filter id="filter0_d_6_14" x="6" y="10" width="321" height="175" filterUnits="userSpaceOnUse" color-interpolation-filters="sRGB">
<feFlood flood-opacity="0" result="BackgroundImageFix"/>
<feColorMatrix in="SourceAlpha" type="matrix" values="0 0 0 0 0 0 0 0 0 0 0 0 0 0 0 0 0 0 127 0" result="hardAlpha"/>
<feOffset dy="4"/>
<feGaussianBlur stdDeviation="2"/>
<feComposite in2="hardAlpha" operator="out"/>
<feColorMatrix type="matrix" values="0 0 0 0 0 0 0 0 0 0 0 0 0 0 0 0 0 0 0.25 0"/>
<feBlend mode="normal" in2="BackgroundImageFix" result="effect1_dropShadow_6_14"/>
<feBlend mode="normal" in="SourceGraphic" in2="effect1_dropShadow_6_14" result="shape"/>
</filter>
<filter id="filter1_dd_6_14" x="6" y="10" width="321" height="175" filterUnits="userSpaceOnUse" color-interpolation-filters="sRGB">
<feFlood flood-opacity="0" result="BackgroundImageFix"/>
<feColorMatrix in="SourceAlpha" type="matrix" values="0 0 0 0 0 0 0 0 0 0 0 0 0 0 0 0 0 0 127 0" result="hardAlpha"/>
<feOffset dy="4"/>
<feGaussianBlur stdDeviation="2"/>
<feComposite in2="hardAlpha" operator="out"/>
<feColorMatrix type="matrix" values="0 0 0 0 0 0 0 0 0 0 0 0 0 0 0 0 0 0 0.25 0"/>
<feBlend mode="normal" in2="BackgroundImageFix" result="effect1_dropShadow_6_14"/>
<feColorMatrix in="SourceAlpha" type="matrix" values="0 0 0 0 0 0 0 0 0 0 0 0 0 0 0 0 0 0 127 0" result="hardAlpha"/>
<feOffset dy="4"/>
<feGaussianBlur stdDeviation="2"/>
<feComposite in2="hardAlpha" operator="out"/>
<feColorMatrix type="matrix" values="0 0 0 0 0 0 0 0 0 0 0 0 0 0 0 0 0 0 0.25 0"/>
<feBlend mode="normal" in2="effect1_dropShadow_6_14" result="effect2_dropShadow_6_14"/>
<feBlend mode="normal" in="SourceGraphic" in2="effect2_dropShadow_6_14" result="shape"/>
</filter>
<filter id="filter2_f_6_14" x="0" y="0" width="333" height="187" filterUnits="userSpaceOnUse" color-interpolation-filters="sRGB">
<feFlood flood-opacity="0" result="BackgroundImageFix"/>
<feBlend mode="normal" in="SourceGraphic" in2="BackgroundImageFix" result="shape"/>
<feGaussianBlur stdDeviation="5" result="effect1_foregroundBlur_6_14"/>
</filter>
</defs>
</svg>
