<svg width="333" height="187" viewBox="0 0 333 187" fill="none" xmlns="http://www.w3.org/2000/svg">
<g filter="url(#filter0_dd_4_6)">
<g filter="url(#filter1_f_4_6)">
<rect x="10" y="10" width="313" height="167" rx="10" fill="black"/>
</g>
<path d="M94.6124 81.1396C91.9073 80.8955 89.8614 80.0605 88.4747 78.6348C87.088 77.209 86.3946 75.3291 86.3946 72.9951C86.3946 70.6611 87.0831 68.7861 88.46 67.3701C89.8467 65.9443 91.8975 65.1045 94.6124 64.8506V62.4043H98.4649V64.8506C101.199 65.1045 103.25 65.9443 104.617 67.3701C105.994 68.7959 106.683 70.6709 106.683 72.9951C106.683 75.3291 105.994 77.209 104.617 78.6348C103.24 80.0508 101.19 80.8857 98.4649 81.1396V83.6006H94.6124V81.1396ZM94.6124 68.1904C92.005 68.835 90.7012 70.4365 90.7012 72.9951C90.7012 75.5537 92.005 77.1553 94.6124 77.7998V68.1904ZM98.4649 77.7998C101.082 77.1553 102.391 75.5537 102.391 72.9951C102.391 70.4365 101.082 68.835 98.4649 68.1904V77.7998ZM122.518 83H118.284C118.148 82.4141 118.079 81.6426 118.079 80.6855C117.337 81.7402 116.595 82.4434 115.853 82.7949C115.12 83.1367 114.285 83.3076 113.348 83.3076C111.961 83.3076 110.838 82.9316 109.979 82.1797C109.129 81.4277 108.704 80.417 108.704 79.1475C108.704 78.2197 108.953 77.3652 109.451 76.584C109.949 75.8027 110.75 75.1924 111.854 74.7529C112.957 74.3037 114.969 73.9717 117.889 73.7568V72.9072C117.889 71.4717 117.171 70.7539 115.735 70.7539C114.202 70.7539 113.348 71.4717 113.172 72.9072L109.144 72.5264C109.407 70.8467 110.203 69.6553 111.531 68.9521C112.859 68.249 114.363 67.8975 116.043 67.8975C117.049 67.8975 117.996 68.0146 118.885 68.249C119.774 68.4834 120.467 68.835 120.965 69.3037C121.463 69.7725 121.8 70.2705 121.976 70.7979C122.151 71.3154 122.239 72.2236 122.239 73.5225V80.2314C122.239 81.5205 122.332 82.4434 122.518 83ZM117.889 75.9102C114.832 76.2129 113.304 77.1357 113.304 78.6787C113.304 79.1963 113.465 79.6455 113.787 80.0264C114.109 80.3975 114.568 80.583 115.164 80.583C115.936 80.583 116.58 80.2656 117.098 79.6309C117.625 78.9863 117.889 78.1953 117.889 77.2578V75.9102ZM125.857 83V68.2051H130.223V73.5371H134.764V68.2051H139.129V83H134.764V76.7158H130.223V83H125.857ZM144.725 83V71.3838H140.638V68.2051H153.045V71.3838H149.075V83H144.725ZM167.723 83H163.489C163.353 82.4141 163.284 81.6426 163.284 80.6855C162.542 81.7402 161.8 82.4434 161.058 82.7949C160.325 83.1367 159.49 83.3076 158.553 83.3076C157.166 83.3076 156.043 82.9316 155.184 82.1797C154.334 81.4277 153.909 80.417 153.909 79.1475C153.909 78.2197 154.158 77.3652 154.656 76.584C155.154 75.8027 155.955 75.1924 157.059 74.7529C158.162 74.3037 160.174 73.9717 163.094 73.7568V72.9072C163.094 71.4717 162.376 70.7539 160.94 70.7539C159.407 70.7539 158.553 71.4717 158.377 72.9072L154.349 72.5264C154.612 70.8467 155.408 69.6553 156.736 68.9521C158.065 68.249 159.568 67.8975 161.248 67.8975C162.254 67.8975 163.201 68.0146 164.09 68.249C164.979 68.4834 165.672 68.835 166.17 69.3037C166.668 69.7725 167.005 70.2705 167.181 70.7979C167.357 71.3154 167.444 72.2236 167.444 73.5225V80.2314C167.444 81.5205 167.537 82.4434 167.723 83ZM163.094 75.9102C160.037 76.2129 158.509 77.1357 158.509 78.6787C158.509 79.1963 158.67 79.6455 158.992 80.0264C159.315 80.3975 159.774 80.583 160.369 80.583C161.141 80.583 161.785 80.2656 162.303 79.6309C162.83 78.9863 163.094 78.1953 163.094 77.2578V75.9102ZM184.07 77.4482C183.904 79.1963 183.211 80.6123 181.99 81.6963C180.779 82.7705 179.212 83.3076 177.288 83.3076C175.198 83.3076 173.494 82.6191 172.176 81.2422C170.867 79.8555 170.213 78.0049 170.213 75.6904C170.213 73.376 170.882 71.501 172.22 70.0654C173.567 68.6201 175.364 67.8975 177.61 67.8975C179.417 67.8975 180.911 68.4395 182.093 69.5234C183.284 70.6074 183.943 71.9648 184.07 73.5957L179.998 73.8301C179.861 72.0527 179.09 71.1641 177.684 71.1641C175.955 71.1641 175.091 72.5801 175.091 75.4121C175.091 77.2969 175.33 78.4932 175.809 79.001C176.297 79.5088 176.888 79.7627 177.581 79.7627C178.929 79.7627 179.734 78.9082 179.998 77.1992L184.07 77.4482ZM188.992 83V71.3838H184.905V68.2051H197.313V71.3838H193.343V83H188.992ZM203.172 81.4619V83H198.807V68.2051H203.172V73.8447C203.172 74.8408 203.133 75.9492 203.055 77.1699C203.797 75.9004 204.446 74.8799 205.003 74.1084L207.903 70.0947V68.2051H212.269V83H207.903V77.7266C207.903 76.5156 207.947 75.2754 208.035 74.0059C207.508 75.2559 206.898 76.3545 206.204 77.3018L203.172 81.4619ZM225.364 73.2881L230.462 83H225.892L222.449 76.3936L220.223 78.752V83H215.857V68.2051H220.223V71.8965C220.223 72.4922 220.203 73.3613 220.164 74.5039C220.506 74.0059 220.921 73.498 221.409 72.9805L225.877 68.2051H229.92L225.364 73.2881ZM244.773 83H240.54C240.403 82.4141 240.335 81.6426 240.335 80.6855C239.593 81.7402 238.851 82.4434 238.108 82.7949C237.376 83.1367 236.541 83.3076 235.604 83.3076C234.217 83.3076 233.094 82.9316 232.234 82.1797C231.385 81.4277 230.96 80.417 230.96 79.1475C230.96 78.2197 231.209 77.3652 231.707 76.584C232.205 75.8027 233.006 75.1924 234.109 74.7529C235.213 74.3037 237.225 73.9717 240.145 73.7568V72.9072C240.145 71.4717 239.427 70.7539 237.991 70.7539C236.458 70.7539 235.604 71.4717 235.428 72.9072L231.399 72.5264C231.663 70.8467 232.459 69.6553 233.787 68.9521C235.115 68.249 236.619 67.8975 238.299 67.8975C239.305 67.8975 240.252 68.0146 241.141 68.249C242.029 68.4834 242.723 68.835 243.221 69.3037C243.719 69.7725 244.056 70.2705 244.232 70.7979C244.407 71.3154 244.495 72.2236 244.495 73.5225V80.2314C244.495 81.5205 244.588 82.4434 244.773 83ZM240.145 75.9102C237.088 76.2129 235.56 77.1357 235.56 78.6787C235.56 79.1963 235.721 79.6455 236.043 80.0264C236.365 80.3975 236.824 80.583 237.42 80.583C238.191 80.583 238.836 80.2656 239.354 79.6309C239.881 78.9863 240.145 78.1953 240.145 77.2578V75.9102ZM102.772 115.462V117H98.4063V102.205H102.772V107.845C102.772 108.841 102.732 109.949 102.654 111.17C103.397 109.9 104.046 108.88 104.603 108.108L107.503 104.095V102.205H111.868V117H107.503V111.727C107.503 110.516 107.547 109.275 107.635 108.006C107.107 109.256 106.497 110.354 105.804 111.302L102.772 115.462ZM129.857 121.995V117.146C127.357 116.951 125.457 116.189 124.158 114.861C122.859 113.523 122.21 111.795 122.21 109.676C122.21 107.449 122.923 105.672 124.349 104.344C125.784 103.016 127.62 102.259 129.857 102.073V97.1221H133.738V102.073C135.965 102.259 137.791 103.016 139.217 104.344C140.652 105.672 141.37 107.449 141.37 109.676C141.37 111.795 140.721 113.523 139.422 114.861C138.133 116.189 136.238 116.951 133.738 117.146V121.995H129.857ZM129.974 104.52C127.728 105.096 126.605 106.771 126.605 109.544C126.605 112.327 127.728 113.997 129.974 114.554V104.52ZM133.607 114.554C135.853 113.997 136.976 112.327 136.976 109.544C136.976 106.771 135.853 105.096 133.607 104.52V114.554ZM146.717 110.862V108.079H152.444C152.444 107.063 152.195 106.268 151.697 105.691C151.209 105.115 150.511 104.827 149.603 104.827C148.206 104.827 147.357 105.457 147.054 106.717L142.996 106.043C144.08 103.279 146.273 101.897 149.573 101.897C151.878 101.897 153.709 102.601 155.066 104.007C156.434 105.413 157.117 107.293 157.117 109.646C157.117 111.863 156.468 113.694 155.169 115.14C153.87 116.585 151.941 117.308 149.383 117.308C146.053 117.308 143.856 115.862 142.791 112.972L146.805 112.327C147.195 113.704 148.113 114.393 149.559 114.393C150.457 114.393 151.165 114.109 151.683 113.543C152.2 112.967 152.459 112.215 152.459 111.287C152.459 111.18 152.454 111.038 152.444 110.862H146.717ZM159.871 117V102.205H164.236V107.537H168.777V102.205H173.143V117H168.777V110.716H164.236V117H159.871ZM178.738 117V105.384H174.651V102.205H187.059V105.384H183.089V117H178.738ZM201.736 117H197.503C197.366 116.414 197.298 115.643 197.298 114.686C196.556 115.74 195.814 116.443 195.071 116.795C194.339 117.137 193.504 117.308 192.566 117.308C191.18 117.308 190.057 116.932 189.197 116.18C188.348 115.428 187.923 114.417 187.923 113.147C187.923 112.22 188.172 111.365 188.67 110.584C189.168 109.803 189.969 109.192 191.072 108.753C192.176 108.304 194.188 107.972 197.107 107.757V106.907C197.107 105.472 196.39 104.754 194.954 104.754C193.421 104.754 192.566 105.472 192.391 106.907L188.362 106.526C188.626 104.847 189.422 103.655 190.75 102.952C192.078 102.249 193.582 101.897 195.262 101.897C196.268 101.897 197.215 102.015 198.104 102.249C198.992 102.483 199.686 102.835 200.184 103.304C200.682 103.772 201.019 104.271 201.194 104.798C201.37 105.315 201.458 106.224 201.458 107.522V114.231C201.458 115.521 201.551 116.443 201.736 117ZM197.107 109.91C194.051 110.213 192.523 111.136 192.523 112.679C192.523 113.196 192.684 113.646 193.006 114.026C193.328 114.397 193.787 114.583 194.383 114.583C195.154 114.583 195.799 114.266 196.316 113.631C196.844 112.986 197.107 112.195 197.107 111.258V109.91ZM208.738 110.701V108.167C210.262 108.167 211.204 107.996 211.565 107.654C211.927 107.312 212.107 106.912 212.107 106.453C212.107 105.965 211.937 105.569 211.595 105.267C211.263 104.964 210.789 104.812 210.174 104.812C208.875 104.812 208.099 105.433 207.845 106.673L203.934 106.028C204.588 103.274 206.785 101.897 210.525 101.897C212.518 101.897 214.007 102.288 214.993 103.069C215.989 103.841 216.487 104.822 216.487 106.014C216.487 107.439 215.574 108.475 213.748 109.119C215.906 109.627 216.985 110.794 216.985 112.62C216.985 114.026 216.429 115.159 215.315 116.019C214.212 116.878 212.61 117.308 210.511 117.308C208.226 117.308 206.575 116.844 205.56 115.916C204.544 114.988 203.914 113.978 203.67 112.884L207.64 112.269C207.972 113.733 208.802 114.466 210.13 114.466C211.634 114.466 212.386 113.831 212.386 112.562C212.386 112.083 212.254 111.697 211.99 111.404C211.727 111.102 211.385 110.911 210.965 110.833C210.545 110.745 209.803 110.701 208.738 110.701ZM224.119 115.462V117H219.754V102.205H224.119V107.845C224.119 108.841 224.08 109.949 224.002 111.17C224.744 109.9 225.394 108.88 225.95 108.108L228.851 104.095V102.205H233.216V117H228.851V111.727C228.851 110.516 228.895 109.275 228.982 108.006C228.455 109.256 227.845 110.354 227.151 111.302L224.119 115.462Z" fill="#F2E3E3"/>
</g>
<defs>
<filter id="filter0_dd_4_6" x="6" y="10" width="321" height="175" filterUnits="userSpaceOnUse" color-interpolation-filters="sRGB">
<feFlood flood-opacity="0" result="BackgroundImageFix"/>
<feColorMatrix in="SourceAlpha" type="matrix" values="0 0 0 0 0 0 0 0 0 0 0 0 0 0 0 0 0 0 127 0" result="hardAlpha"/>
<feOffset dy="4"/>
<feGaussianBlur stdDeviation="2"/>
<feComposite in2="hardAlpha" operator="out"/>
<feColorMatrix type="matrix" values="0 0 0 0 0 0 0 0 0 0 0 0 0 0 0 0 0 0 0.25 0"/>
<feBlend mode="normal" in2="BackgroundImageFix" result="effect1_dropShadow_4_6"/>
<feColorMatrix in="SourceAlpha" type="matrix" values="0 0 0 0 0 0 0 0 0 0 0 0 0 0 0 0 0 0 127 0" result="hardAlpha"/>
<feOffset dy="4"/>
<feGaussianBlur stdDeviation="2"/>
<feComposite in2="hardAlpha" operator="out"/>
<feColorMatrix type="matrix" values="0 0 0 0 0 0 0 0 0 0 0 0 0 0 0 0 0 0 0.25 0"/>
<feBlend mode="normal" in2="effect1_dropShadow_4_6" result="effect2_dropShadow_4_6"/>
<feBlend mode="normal" in="SourceGraphic" in2="effect2_dropShadow_4_6" result="shape"/>
</filter>
<filter id="filter1_f_4_6" x="0" y="0" width="333" height="187" filterUnits="userSpaceOnUse" color-interpolation-filters="sRGB">
<feFlood flood-opacity="0" result="BackgroundImageFix"/>
<feBlend mode="normal" in="SourceGraphic" in2="BackgroundImageFix" result="shape"/>
<feGaussianBlur stdDeviation="5" result="effect1_foregroundBlur_4_6"/>
</filter>
</defs>
</svg>
