<svg width="323" height="177" viewBox="0 0 323 177" fill="none" xmlns="http://www.w3.org/2000/svg">
<g filter="url(#filter0_i_6_30)">
<g filter="url(#filter1_dd_6_30)">
<rect x="4" width="315" height="169" rx="10" fill="black"/>
<path d="M89.6079 71.6904C86.9028 71.4463 84.8569 70.6113 83.4702 69.1855C82.0835 67.7598 81.3901 65.8799 81.3901 63.5459C81.3901 61.2119 82.0786 59.3369 83.4555 57.9209C84.8422 56.4951 86.893 55.6553 89.6079 55.4014V52.9551H93.4604V55.4014C96.1948 55.6553 98.2456 56.4951 99.6127 57.9209C100.99 59.3467 101.678 61.2217 101.678 63.5459C101.678 65.8799 100.99 67.7598 99.6127 69.1855C98.2358 70.6016 96.185 71.4365 93.4604 71.6904V74.1514H89.6079V71.6904ZM89.6079 58.7412C87.0004 59.3857 85.6967 60.9873 85.6967 63.5459C85.6967 66.1045 87.0004 67.7061 89.6079 68.3506V58.7412ZM93.4604 68.3506C96.0776 67.7061 97.3862 66.1045 97.3862 63.5459C97.3862 60.9873 96.0776 59.3857 93.4604 58.7412V68.3506ZM117.513 73.5508H113.28C113.143 72.9648 113.075 72.1934 113.075 71.2363C112.332 72.291 111.59 72.9941 110.848 73.3457C110.116 73.6875 109.281 73.8584 108.343 73.8584C106.956 73.8584 105.833 73.4824 104.974 72.7305C104.124 71.9785 103.7 70.9678 103.7 69.6982C103.7 68.7705 103.949 67.916 104.447 67.1348C104.945 66.3535 105.746 65.7432 106.849 65.3037C107.953 64.8545 109.964 64.5225 112.884 64.3076V63.458C112.884 62.0225 112.166 61.3047 110.731 61.3047C109.198 61.3047 108.343 62.0225 108.167 63.458L104.139 63.0771C104.403 61.3975 105.199 60.2061 106.527 59.5029C107.855 58.7998 109.359 58.4482 111.039 58.4482C112.044 58.4482 112.992 58.5654 113.88 58.7998C114.769 59.0342 115.462 59.3857 115.96 59.8545C116.458 60.3232 116.795 60.8213 116.971 61.3486C117.147 61.8662 117.235 62.7744 117.235 64.0732V70.7822C117.235 72.0713 117.328 72.9941 117.513 73.5508ZM112.884 66.4609C109.828 66.7637 108.299 67.6865 108.299 69.2295C108.299 69.7471 108.46 70.1963 108.783 70.5771C109.105 70.9482 109.564 71.1338 110.16 71.1338C110.931 71.1338 111.576 70.8164 112.093 70.1816C112.621 69.5371 112.884 68.7461 112.884 67.8086V66.4609ZM120.853 73.5508V58.7559H125.218V64.0879H129.759V58.7559H134.124V73.5508H129.759V67.2666H125.218V73.5508H120.853ZM139.72 73.5508V61.9346H135.633V58.7559H148.04V61.9346H144.071V73.5508H139.72ZM162.718 73.5508H158.485C158.348 72.9648 158.28 72.1934 158.28 71.2363C157.538 72.291 156.795 72.9941 156.053 73.3457C155.321 73.6875 154.486 73.8584 153.548 73.8584C152.162 73.8584 151.039 73.4824 150.179 72.7305C149.33 71.9785 148.905 70.9678 148.905 69.6982C148.905 68.7705 149.154 67.916 149.652 67.1348C150.15 66.3535 150.951 65.7432 152.054 65.3037C153.158 64.8545 155.169 64.5225 158.089 64.3076V63.458C158.089 62.0225 157.372 61.3047 155.936 61.3047C154.403 61.3047 153.548 62.0225 153.373 63.458L149.344 63.0771C149.608 61.3975 150.404 60.2061 151.732 59.5029C153.06 58.7998 154.564 58.4482 156.244 58.4482C157.249 58.4482 158.197 58.5654 159.085 58.7998C159.974 59.0342 160.667 59.3857 161.165 59.8545C161.664 60.3232 162 60.8213 162.176 61.3486C162.352 61.8662 162.44 62.7744 162.44 64.0732V70.7822C162.44 72.0713 162.533 72.9941 162.718 73.5508ZM158.089 66.4609C155.033 66.7637 153.504 67.6865 153.504 69.2295C153.504 69.7471 153.665 70.1963 153.988 70.5771C154.31 70.9482 154.769 71.1338 155.365 71.1338C156.136 71.1338 156.781 70.8164 157.298 70.1816C157.826 69.5371 158.089 68.7461 158.089 67.8086V66.4609ZM179.066 67.999C178.9 69.7471 178.206 71.1631 176.986 72.2471C175.775 73.3213 174.207 73.8584 172.284 73.8584C170.194 73.8584 168.49 73.1699 167.171 71.793C165.863 70.4062 165.208 68.5557 165.208 66.2412C165.208 63.9268 165.877 62.0518 167.215 60.6162C168.563 59.1709 170.36 58.4482 172.606 58.4482C174.413 58.4482 175.907 58.9902 177.088 60.0742C178.28 61.1582 178.939 62.5156 179.066 64.1465L174.994 64.3809C174.857 62.6035 174.085 61.7148 172.679 61.7148C170.951 61.7148 170.086 63.1309 170.086 65.9629C170.086 67.8477 170.326 69.0439 170.804 69.5518C171.292 70.0596 171.883 70.3135 172.577 70.3135C173.924 70.3135 174.73 69.459 174.994 67.75L179.066 67.999ZM183.988 73.5508V61.9346H179.901V58.7559H192.308V61.9346H188.338V73.5508H183.988ZM198.167 72.0127V73.5508H193.802V58.7559H198.167V64.3955C198.167 65.3916 198.128 66.5 198.05 67.7207C198.792 66.4512 199.442 65.4307 199.998 64.6592L202.899 60.6455V58.7559H207.264V73.5508H202.899V68.2773C202.899 67.0664 202.943 65.8262 203.031 64.5566C202.503 65.8066 201.893 66.9053 201.2 67.8525L198.167 72.0127ZM220.36 63.8389L225.457 73.5508H220.887L217.445 66.9443L215.218 69.3027V73.5508H210.853V58.7559H215.218V62.4473C215.218 63.043 215.199 63.9121 215.16 65.0547C215.501 64.5566 215.916 64.0488 216.405 63.5312L220.873 58.7559H224.915L220.36 63.8389ZM239.769 73.5508H235.536C235.399 72.9648 235.331 72.1934 235.331 71.2363C234.588 72.291 233.846 72.9941 233.104 73.3457C232.372 73.6875 231.537 73.8584 230.599 73.8584C229.212 73.8584 228.089 73.4824 227.23 72.7305C226.38 71.9785 225.956 70.9678 225.956 69.6982C225.956 68.7705 226.205 67.916 226.703 67.1348C227.201 66.3535 228.001 65.7432 229.105 65.3037C230.208 64.8545 232.22 64.5225 235.14 64.3076V63.458C235.14 62.0225 234.422 61.3047 232.987 61.3047C231.454 61.3047 230.599 62.0225 230.423 63.458L226.395 63.0771C226.659 61.3975 227.455 60.2061 228.783 59.5029C230.111 58.7998 231.615 58.4482 233.294 58.4482C234.3 58.4482 235.248 58.5654 236.136 58.7998C237.025 59.0342 237.718 59.3857 238.216 59.8545C238.714 60.3232 239.051 60.8213 239.227 61.3486C239.403 61.8662 239.491 62.7744 239.491 64.0732V70.7822C239.491 72.0713 239.583 72.9941 239.769 73.5508ZM235.14 66.4609C232.083 66.7637 230.555 67.6865 230.555 69.2295C230.555 69.7471 230.716 70.1963 231.039 70.5771C231.361 70.9482 231.82 71.1338 232.415 71.1338C233.187 71.1338 233.831 70.8164 234.349 70.1816C234.876 69.5371 235.14 68.7461 235.14 67.8086V66.4609ZM97.767 106.013V107.551H93.4018V92.7559H97.767V98.3955C97.767 99.3916 97.728 100.5 97.6499 101.721C98.392 100.451 99.0415 99.4307 99.5981 98.6592L102.498 94.6455V92.7559H106.864V107.551H102.498V102.277C102.498 101.066 102.542 99.8262 102.63 98.5566C102.103 99.8066 101.493 100.905 100.799 101.853L97.767 106.013ZM124.852 112.546V107.697C122.352 107.502 120.453 106.74 119.154 105.412C117.855 104.074 117.206 102.346 117.206 100.227C117.206 98 117.918 96.2227 119.344 94.8945C120.78 93.5664 122.616 92.8096 124.852 92.624V87.6729H128.734V92.624C130.96 92.8096 132.787 93.5664 134.212 94.8945C135.648 96.2227 136.366 98 136.366 100.227C136.366 102.346 135.716 104.074 134.417 105.412C133.128 106.74 131.234 107.502 128.734 107.697V112.546H124.852ZM124.969 95.0703C122.723 95.6465 121.6 97.3213 121.6 100.095C121.6 102.878 122.723 104.548 124.969 105.104V95.0703ZM128.602 105.104C130.848 104.548 131.971 102.878 131.971 100.095C131.971 97.3213 130.848 95.6465 128.602 95.0703V105.104ZM141.712 101.413V98.6299H147.44C147.44 97.6143 147.191 96.8184 146.693 96.2422C146.205 95.666 145.506 95.3779 144.598 95.3779C143.202 95.3779 142.352 96.0078 142.049 97.2676L137.992 96.5938C139.076 93.8301 141.268 92.4482 144.569 92.4482C146.873 92.4482 148.705 93.1514 150.062 94.5576C151.429 95.9639 152.113 97.8438 152.113 100.197C152.113 102.414 151.463 104.245 150.165 105.69C148.866 107.136 146.937 107.858 144.378 107.858C141.048 107.858 138.851 106.413 137.787 103.522L141.8 102.878C142.191 104.255 143.109 104.943 144.554 104.943C145.453 104.943 146.161 104.66 146.678 104.094C147.196 103.518 147.455 102.766 147.455 101.838C147.455 101.73 147.45 101.589 147.44 101.413H141.712ZM154.867 107.551V92.7559H159.232V98.0879H163.773V92.7559H168.138V107.551H163.773V101.267H159.232V107.551H154.867ZM173.734 107.551V95.9346H169.647V92.7559H182.054V95.9346H178.084V107.551H173.734ZM196.732 107.551H192.498C192.362 106.965 192.293 106.193 192.293 105.236C191.551 106.291 190.809 106.994 190.067 107.346C189.334 107.688 188.499 107.858 187.562 107.858C186.175 107.858 185.052 107.482 184.193 106.73C183.343 105.979 182.918 104.968 182.918 103.698C182.918 102.771 183.167 101.916 183.665 101.135C184.164 100.354 184.964 99.7432 186.068 99.3037C187.171 98.8545 189.183 98.5225 192.103 98.3076V97.458C192.103 96.0225 191.385 95.3047 189.95 95.3047C188.416 95.3047 187.562 96.0225 187.386 97.458L183.358 97.0771C183.622 95.3975 184.417 94.2061 185.746 93.5029C187.074 92.7998 188.578 92.4482 190.257 92.4482C191.263 92.4482 192.21 92.5654 193.099 92.7998C193.988 93.0342 194.681 93.3857 195.179 93.8545C195.677 94.3232 196.014 94.8213 196.19 95.3486C196.366 95.8662 196.454 96.7744 196.454 98.0732V104.782C196.454 106.071 196.546 106.994 196.732 107.551ZM192.103 100.461C189.046 100.764 187.518 101.687 187.518 103.229C187.518 103.747 187.679 104.196 188.001 104.577C188.324 104.948 188.783 105.134 189.378 105.134C190.15 105.134 190.794 104.816 191.312 104.182C191.839 103.537 192.103 102.746 192.103 101.809V100.461ZM203.734 101.252V98.7178C205.257 98.7178 206.2 98.5469 206.561 98.2051C206.922 97.8633 207.103 97.4629 207.103 97.0039C207.103 96.5156 206.932 96.1201 206.59 95.8174C206.258 95.5146 205.785 95.3633 205.169 95.3633C203.871 95.3633 203.094 95.9834 202.84 97.2236L198.929 96.5791C199.583 93.8252 201.781 92.4482 205.521 92.4482C207.513 92.4482 209.002 92.8389 209.989 93.6201C210.985 94.3916 211.483 95.373 211.483 96.5645C211.483 97.9902 210.57 99.0254 208.744 99.6699C210.902 100.178 211.981 101.345 211.981 103.171C211.981 104.577 211.424 105.71 210.311 106.569C209.207 107.429 207.606 107.858 205.506 107.858C203.221 107.858 201.571 107.395 200.555 106.467C199.54 105.539 198.91 104.528 198.665 103.435L202.635 102.819C202.967 104.284 203.797 105.017 205.125 105.017C206.629 105.017 207.381 104.382 207.381 103.112C207.381 102.634 207.249 102.248 206.986 101.955C206.722 101.652 206.38 101.462 205.96 101.384C205.54 101.296 204.798 101.252 203.734 101.252ZM219.115 106.013V107.551H214.749V92.7559H219.115V98.3955C219.115 99.3916 219.076 100.5 218.998 101.721C219.74 100.451 220.389 99.4307 220.946 98.6592L223.846 94.6455V92.7559H228.211V107.551H223.846V102.277C223.846 101.066 223.89 99.8262 223.978 98.5566C223.451 99.8066 222.84 100.905 222.147 101.853L219.115 106.013Z" fill="#F2E3E3"/>
</g>
</g>
<defs>
<filter id="filter0_i_6_30" x="4" y="0" width="315" height="173" filterUnits="userSpaceOnUse" color-interpolation-filters="sRGB">
<feFlood flood-opacity="0" result="BackgroundImageFix"/>
<feBlend mode="normal" in="SourceGraphic" in2="BackgroundImageFix" result="shape"/>
<feColorMatrix in="SourceAlpha" type="matrix" values="0 0 0 0 0 0 0 0 0 0 0 0 0 0 0 0 0 0 127 0" result="hardAlpha"/>
<feOffset dy="4"/>
<feGaussianBlur stdDeviation="2"/>
<feComposite in2="hardAlpha" operator="arithmetic" k2="-1" k3="1"/>
<feColorMatrix type="matrix" values="0 0 0 0 0 0 0 0 0 0 0 0 0 0 0 0 0 0 0.25 0"/>
<feBlend mode="normal" in2="shape" result="effect1_innerShadow_6_30"/>
</filter>
<filter id="filter1_dd_6_30" x="0" y="0" width="323" height="177" filterUnits="userSpaceOnUse" color-interpolation-filters="sRGB">
<feFlood flood-opacity="0" result="BackgroundImageFix"/>
<feColorMatrix in="SourceAlpha" type="matrix" values="0 0 0 0 0 0 0 0 0 0 0 0 0 0 0 0 0 0 127 0" result="hardAlpha"/>
<feOffset dy="4"/>
<feGaussianBlur stdDeviation="2"/>
<feComposite in2="hardAlpha" operator="out"/>
<feColorMatrix type="matrix" values="0 0 0 0 0 0 0 0 0 0 0 0 0 0 0 0 0 0 0.25 0"/>
<feBlend mode="normal" in2="BackgroundImageFix" result="effect1_dropShadow_6_30"/>
<feColorMatrix in="SourceAlpha" type="matrix" values="0 0 0 0 0 0 0 0 0 0 0 0 0 0 0 0 0 0 127 0" result="hardAlpha"/>
<feOffset dy="4"/>
<feGaussianBlur stdDeviation="2"/>
<feComposite in2="hardAlpha" operator="out"/>
<feColorMatrix type="matrix" values="0 0 0 0 0 0 0 0 0 0 0 0 0 0 0 0 0 0 0.25 0"/>
<feBlend mode="normal" in2="effect1_dropShadow_6_30" result="effect2_dropShadow_6_30"/>
<feBlend mode="normal" in="SourceGraphic" in2="effect2_dropShadow_6_30" result="shape"/>
</filter>
</defs>
</svg>
