<svg width="56" height="56" viewBox="0 0 56 56" fill="none" xmlns="http://www.w3.org/2000/svg">
<path d="M18.2 4.66667H37.8C45.2667 4.66667 51.3333 10.7333 51.3333 18.2V37.8C51.3333 41.3893 49.9075 44.8315 47.3695 47.3695C44.8315 49.9075 41.3893 51.3333 37.8 51.3333H18.2C10.7333 51.3333 4.66666 45.2667 4.66666 37.8V18.2C4.66666 14.6107 6.09249 11.1685 8.63048 8.63049C11.1685 6.0925 14.6107 4.66667 18.2 4.66667ZM17.7333 9.33334C15.5055 9.33334 13.3689 10.2183 11.7936 11.7936C10.2183 13.3689 9.33332 15.5055 9.33332 17.7333V38.2667C9.33332 42.91 13.09 46.6667 17.7333 46.6667H38.2667C40.4945 46.6667 42.6311 45.7817 44.2064 44.2064C45.7817 42.6311 46.6667 40.4945 46.6667 38.2667V17.7333C46.6667 13.09 42.91 9.33334 38.2667 9.33334H17.7333ZM40.25 12.8333C41.0235 12.8333 41.7654 13.1406 42.3124 13.6876C42.8594 14.2346 43.1667 14.9765 43.1667 15.75C43.1667 16.5236 42.8594 17.2654 42.3124 17.8124C41.7654 18.3594 41.0235 18.6667 40.25 18.6667C39.4764 18.6667 38.7346 18.3594 38.1876 17.8124C37.6406 17.2654 37.3333 16.5236 37.3333 15.75C37.3333 14.9765 37.6406 14.2346 38.1876 13.6876C38.7346 13.1406 39.4764 12.8333 40.25 12.8333ZM28 16.3333C31.0942 16.3333 34.0616 17.5625 36.2496 19.7504C38.4375 21.9384 39.6667 24.9058 39.6667 28C39.6667 31.0942 38.4375 34.0617 36.2496 36.2496C34.0616 38.4375 31.0942 39.6667 28 39.6667C24.9058 39.6667 21.9383 38.4375 19.7504 36.2496C17.5625 34.0617 16.3333 31.0942 16.3333 28C16.3333 24.9058 17.5625 21.9384 19.7504 19.7504C21.9383 17.5625 24.9058 16.3333 28 16.3333ZM28 21C26.1435 21 24.363 21.7375 23.0502 23.0503C21.7375 24.363 21 26.1435 21 28C21 29.8565 21.7375 31.637 23.0502 32.9498C24.363 34.2625 26.1435 35 28 35C29.8565 35 31.637 34.2625 32.9497 32.9498C34.2625 31.637 35 29.8565 35 28C35 26.1435 34.2625 24.363 32.9497 23.0503C31.637 21.7375 29.8565 21 28 21Z" fill="#D5B9B9"/>
</svg>
