<svg width="137" height="50" viewBox="0 0 137 50" fill="none" xmlns="http://www.w3.org/2000/svg">
<path d="M2.52841 39V9.90909H14.0057C16.2027 9.90909 18.0777 10.3021 19.6307 11.0881C21.1932 11.8646 22.3816 12.9678 23.196 14.3977C24.0199 15.8182 24.4318 17.4896 24.4318 19.4119C24.4318 21.3437 24.0152 23.0057 23.1818 24.3977C22.3485 25.7803 21.1411 26.8409 19.5597 27.5795C17.9877 28.3182 16.0843 28.6875 13.8494 28.6875H6.16477V23.7443H12.8551C14.0294 23.7443 15.0047 23.5833 15.7812 23.2614C16.5578 22.9394 17.1354 22.4564 17.5142 21.8125C17.9025 21.1686 18.0966 20.3684 18.0966 19.4119C18.0966 18.446 17.9025 17.6316 17.5142 16.9688C17.1354 16.3059 16.553 15.804 15.767 15.4631C14.9905 15.1127 14.0104 14.9375 12.8267 14.9375H8.67898V39H2.52841ZM18.2386 25.7614L25.4688 39H18.679L11.6051 25.7614H18.2386ZM34.8864 39.4119C33.4943 39.4119 32.2538 39.1705 31.1648 38.6875C30.0758 38.1951 29.214 37.4706 28.5795 36.5142C27.9545 35.5483 27.642 34.3456 27.642 32.9062C27.642 31.6941 27.8646 30.6761 28.3097 29.8523C28.7547 29.0284 29.3608 28.3655 30.1278 27.8636C30.8949 27.3617 31.7661 26.983 32.7415 26.7273C33.7263 26.4716 34.7585 26.2917 35.8381 26.1875C37.107 26.0549 38.1297 25.9318 38.9062 25.8182C39.6828 25.6951 40.2462 25.5152 40.5966 25.2784C40.947 25.0417 41.1222 24.6913 41.1222 24.2273V24.142C41.1222 23.2424 40.8381 22.5464 40.2699 22.054C39.7112 21.5616 38.9157 21.3153 37.8835 21.3153C36.7945 21.3153 35.928 21.5568 35.2841 22.0398C34.6402 22.5133 34.214 23.1098 34.0057 23.8295L28.4091 23.375C28.6932 22.0492 29.2519 20.9034 30.0852 19.9375C30.9186 18.9621 31.9934 18.214 33.3097 17.6932C34.6354 17.1629 36.1695 16.8977 37.9119 16.8977C39.1241 16.8977 40.2841 17.0398 41.392 17.3239C42.5095 17.608 43.4991 18.0483 44.3608 18.6449C45.232 19.2415 45.9186 20.0085 46.4205 20.946C46.9223 21.8741 47.1733 22.9867 47.1733 24.2841V39H41.4347V35.9744H41.2642C40.9138 36.6562 40.4451 37.2576 39.858 37.7784C39.2708 38.2898 38.5653 38.6922 37.7415 38.9858C36.9176 39.2699 35.9659 39.4119 34.8864 39.4119ZM36.6193 35.2358C37.5095 35.2358 38.2955 35.0606 38.9773 34.7102C39.6591 34.3504 40.1941 33.8674 40.5824 33.2614C40.9706 32.6553 41.1648 31.9687 41.1648 31.2017V28.8864C40.9754 29.0095 40.715 29.1231 40.3835 29.2273C40.0616 29.322 39.697 29.4119 39.2898 29.4972C38.8826 29.5729 38.4754 29.6439 38.0682 29.7102C37.661 29.767 37.2917 29.8191 36.9602 29.8665C36.25 29.9706 35.6297 30.1364 35.0994 30.3636C34.5691 30.5909 34.1572 30.8987 33.8636 31.2869C33.5701 31.6657 33.4233 32.1392 33.4233 32.7074C33.4233 33.5312 33.7216 34.161 34.3182 34.5966C34.9242 35.0227 35.6913 35.2358 36.6193 35.2358ZM63.473 17.1818V21.7273H50.3338V17.1818H63.473ZM53.3168 11.9545H59.3679V32.2955C59.3679 32.8542 59.4531 33.2898 59.6236 33.6023C59.794 33.9053 60.0308 34.1184 60.3338 34.2415C60.6463 34.3646 61.0062 34.4261 61.4134 34.4261C61.6974 34.4261 61.9815 34.4025 62.2656 34.3551C62.5497 34.2983 62.7675 34.2557 62.919 34.2273L63.8707 38.7301C63.5677 38.8248 63.1416 38.9337 62.5923 39.0568C62.0431 39.1894 61.3755 39.2699 60.5895 39.2983C59.1312 39.3551 57.8527 39.161 56.7543 38.7159C55.6652 38.2708 54.8177 37.5795 54.2116 36.642C53.6056 35.7045 53.3073 34.5208 53.3168 33.0909V11.9545ZM67.4148 39V17.1818H73.4659V39H67.4148ZM70.4545 14.3693C69.5549 14.3693 68.7831 14.071 68.1392 13.4744C67.5047 12.8684 67.1875 12.1439 67.1875 11.3011C67.1875 10.4678 67.5047 9.75284 68.1392 9.15625C68.7831 8.55019 69.5549 8.24716 70.4545 8.24716C71.3542 8.24716 72.1212 8.55019 72.7557 9.15625C73.3996 9.75284 73.7216 10.4678 73.7216 11.3011C73.7216 12.1439 73.3996 12.8684 72.7557 13.4744C72.1212 14.071 71.3542 14.3693 70.4545 14.3693ZM84.3643 26.3864V39H78.3132V17.1818H84.0803V21.0312H84.3359C84.8189 19.7623 85.6286 18.7585 86.7649 18.0199C87.9013 17.2718 89.2791 16.8977 90.8984 16.8977C92.4136 16.8977 93.7346 17.2292 94.8615 17.892C95.9884 18.5549 96.8643 19.5019 97.4893 20.733C98.1143 21.9545 98.4268 23.4129 98.4268 25.108V39H92.3757V26.1875C92.3852 24.8523 92.0443 23.8106 91.353 23.0625C90.6617 22.3049 89.71 21.9261 88.4979 21.9261C87.6835 21.9261 86.9638 22.1013 86.3388 22.4517C85.7232 22.8021 85.2403 23.3134 84.8899 23.9858C84.549 24.6487 84.3738 25.4489 84.3643 26.3864ZM113.026 47.6364C111.065 47.6364 109.384 47.3665 107.983 46.8267C106.591 46.2964 105.483 45.572 104.659 44.6534C103.835 43.7348 103.3 42.7027 103.054 41.5568L108.651 40.804C108.821 41.2396 109.091 41.6468 109.46 42.0256C109.83 42.4044 110.317 42.7074 110.923 42.9347C111.539 43.1714 112.287 43.2898 113.168 43.2898C114.484 43.2898 115.568 42.9678 116.42 42.3239C117.282 41.6894 117.713 40.6241 117.713 39.1278V35.1364H117.457C117.192 35.7424 116.795 36.3153 116.264 36.8551C115.734 37.3949 115.052 37.8352 114.219 38.1761C113.385 38.517 112.391 38.6875 111.236 38.6875C109.598 38.6875 108.106 38.3087 106.761 37.5511C105.426 36.7841 104.361 35.6146 103.565 34.0426C102.779 32.4612 102.386 30.4631 102.386 28.0483C102.386 25.5767 102.789 23.5123 103.594 21.8551C104.399 20.1979 105.469 18.9574 106.804 18.1335C108.149 17.3097 109.621 16.8977 111.222 16.8977C112.443 16.8977 113.466 17.1061 114.29 17.5227C115.114 17.9299 115.777 18.4413 116.278 19.0568C116.79 19.6629 117.183 20.2595 117.457 20.8466H117.685V17.1818H123.693V39.2131C123.693 41.0691 123.239 42.6222 122.33 43.8722C121.42 45.1222 120.161 46.0597 118.551 46.6847C116.951 47.3191 115.109 47.6364 113.026 47.6364ZM113.153 34.142C114.129 34.142 114.953 33.9006 115.625 33.4176C116.307 32.9252 116.828 32.2244 117.188 31.3153C117.557 30.3968 117.741 29.2983 117.741 28.0199C117.741 26.7415 117.562 25.6335 117.202 24.696C116.842 23.7491 116.321 23.0152 115.639 22.4943C114.957 21.9735 114.129 21.7131 113.153 21.7131C112.159 21.7131 111.321 21.983 110.639 22.5227C109.957 23.053 109.441 23.7917 109.091 24.7386C108.741 25.6856 108.565 26.7794 108.565 28.0199C108.565 29.2794 108.741 30.3684 109.091 31.2869C109.451 32.196 109.967 32.9015 110.639 33.4034C111.321 33.8958 112.159 34.142 113.153 34.142Z" fill="white"/>
</svg>
