<svg width="333" height="187" viewBox="0 0 333 187" fill="none" xmlns="http://www.w3.org/2000/svg">
<g filter="url(#filter0_d_9_35)">
<g filter="url(#filter1_dd_9_35)">
<g filter="url(#filter2_f_9_35)">
<rect x="10" y="10" width="313" height="167" rx="10" fill="black"/>
</g>
<path d="M97.5186 94.5732V102H92.7578V82.0049H100.639C102.396 82.0049 103.739 82.1953 104.667 82.5762C105.604 82.9473 106.439 83.6162 107.172 84.583C107.904 85.5498 108.271 86.7363 108.271 88.1426C108.271 89.1289 108.075 90.0908 107.685 91.0283C107.294 91.9658 106.742 92.7031 106.029 93.2402C105.316 93.7773 104.623 94.1338 103.949 94.3096C103.285 94.4854 102.24 94.5732 100.814 94.5732H97.5186ZM97.3574 90.9404H100.404C101.566 90.9404 102.382 90.6719 102.851 90.1348C103.319 89.5977 103.554 88.9824 103.554 88.2891C103.554 87.4785 103.29 86.834 102.763 86.3555C102.245 85.877 101.454 85.6377 100.39 85.6377H97.3574V90.9404ZM116.459 86.8975C118.715 86.8975 120.473 87.6348 121.732 89.1094C123.002 90.584 123.637 92.4297 123.637 94.6465C123.637 96.834 122.978 98.6602 121.659 100.125C120.351 101.58 118.607 102.308 116.43 102.308C114.32 102.308 112.631 101.585 111.361 100.14C110.102 98.6943 109.472 96.8389 109.472 94.5732C109.472 93.001 109.755 91.668 110.321 90.5742C110.897 89.4707 111.684 88.582 112.68 87.9082C113.676 87.2344 114.936 86.8975 116.459 86.8975ZM116.576 89.7539C115.746 89.7539 115.121 90.0762 114.701 90.7207C114.281 91.3555 114.071 92.625 114.071 94.5293C114.071 96.2773 114.271 97.5322 114.672 98.2939C115.072 99.0557 115.697 99.4365 116.547 99.4365C117.289 99.4365 117.89 99.1143 118.349 98.4697C118.808 97.8154 119.037 96.5752 119.037 94.749C119.037 92.8057 118.832 91.4873 118.422 90.7939C118.021 90.1006 117.406 89.7539 116.576 89.7539ZM126.376 102V87.2051H132.689L135.912 99.0264L139.252 87.2051H145.17V102H141.186V90.1934H140.98L137.626 102H133.29L129.965 90.1934H129.76V102H126.376ZM161.708 102H157.475C157.338 101.414 157.27 100.643 157.27 99.6855C156.527 100.74 155.785 101.443 155.043 101.795C154.311 102.137 153.476 102.308 152.538 102.308C151.151 102.308 150.028 101.932 149.169 101.18C148.319 100.428 147.895 99.417 147.895 98.1475C147.895 97.2197 148.144 96.3652 148.642 95.584C149.14 94.8027 149.94 94.1924 151.044 93.7529C152.147 93.3037 154.159 92.9717 157.079 92.7568V91.9072C157.079 90.4717 156.361 89.7539 154.926 89.7539C153.393 89.7539 152.538 90.4717 152.362 91.9072L148.334 91.5264C148.598 89.8467 149.394 88.6553 150.722 87.9521C152.05 87.249 153.554 86.8975 155.233 86.8975C156.239 86.8975 157.187 87.0146 158.075 87.249C158.964 87.4834 159.657 87.835 160.155 88.3037C160.653 88.7725 160.99 89.2705 161.166 89.7979C161.342 90.3154 161.43 91.2236 161.43 92.5225V99.2314C161.43 100.521 161.522 101.443 161.708 102ZM157.079 94.9102C154.022 95.2129 152.494 96.1357 152.494 97.6787C152.494 98.1963 152.655 98.6455 152.978 99.0264C153.3 99.3975 153.759 99.583 154.354 99.583C155.126 99.583 155.771 99.2656 156.288 98.6309C156.815 97.9863 157.079 97.1953 157.079 96.2578V94.9102ZM165.048 102V87.2051H169.413V92.5371H173.954V87.2051H178.319V102H173.954V95.7158H169.413V102H165.048ZM183.915 102V90.3838H179.828V87.2051H192.235V90.3838H188.266V102H183.915ZM198.095 100.462V102H193.729V87.2051H198.095V92.8447C198.095 93.8408 198.056 94.9492 197.978 96.1699C198.72 94.9004 199.369 93.8799 199.926 93.1084L202.826 89.0947V87.2051H207.191V102H202.826V96.7266C202.826 95.5156 202.87 94.2754 202.958 93.0059C202.431 94.2559 201.82 95.3545 201.127 96.3018L198.095 100.462ZM220.287 92.2881L225.385 102H220.814L217.372 95.3936L215.146 97.752V102H210.78V87.2051H215.146V90.8965C215.146 91.4922 215.126 92.3613 215.087 93.5039C215.429 93.0059 215.844 92.498 216.332 91.9805L220.8 87.2051H224.843L220.287 92.2881ZM239.696 102H235.463C235.326 101.414 235.258 100.643 235.258 99.6855C234.516 100.74 233.773 101.443 233.031 101.795C232.299 102.137 231.464 102.308 230.526 102.308C229.14 102.308 228.017 101.932 227.157 101.18C226.308 100.428 225.883 99.417 225.883 98.1475C225.883 97.2197 226.132 96.3652 226.63 95.584C227.128 94.8027 227.929 94.1924 229.032 93.7529C230.136 93.3037 232.147 92.9717 235.067 92.7568V91.9072C235.067 90.4717 234.35 89.7539 232.914 89.7539C231.381 89.7539 230.526 90.4717 230.351 91.9072L226.322 91.5264C226.586 89.8467 227.382 88.6553 228.71 87.9521C230.038 87.249 231.542 86.8975 233.222 86.8975C234.228 86.8975 235.175 87.0146 236.063 87.249C236.952 87.4834 237.646 87.835 238.144 88.3037C238.642 88.7725 238.979 89.2705 239.154 89.7979C239.33 90.3154 239.418 91.2236 239.418 92.5225V99.2314C239.418 100.521 239.511 101.443 239.696 102ZM235.067 94.9102C232.011 95.2129 230.482 96.1357 230.482 97.6787C230.482 98.1963 230.644 98.6455 230.966 99.0264C231.288 99.3975 231.747 99.583 232.343 99.583C233.114 99.583 233.759 99.2656 234.276 98.6309C234.804 97.9863 235.067 97.1953 235.067 96.2578V94.9102Z" fill="#F2E3E3"/>
</g>
</g>
<defs>
<filter id="filter0_d_9_35" x="6" y="10" width="321" height="175" filterUnits="userSpaceOnUse" color-interpolation-filters="sRGB">
<feFlood flood-opacity="0" result="BackgroundImageFix"/>
<feColorMatrix in="SourceAlpha" type="matrix" values="0 0 0 0 0 0 0 0 0 0 0 0 0 0 0 0 0 0 127 0" result="hardAlpha"/>
<feOffset dy="4"/>
<feGaussianBlur stdDeviation="2"/>
<feComposite in2="hardAlpha" operator="out"/>
<feColorMatrix type="matrix" values="0 0 0 0 0 0 0 0 0 0 0 0 0 0 0 0 0 0 0.25 0"/>
<feBlend mode="normal" in2="BackgroundImageFix" result="effect1_dropShadow_9_35"/>
<feBlend mode="normal" in="SourceGraphic" in2="effect1_dropShadow_9_35" result="shape"/>
</filter>
<filter id="filter1_dd_9_35" x="6" y="10" width="321" height="175" filterUnits="userSpaceOnUse" color-interpolation-filters="sRGB">
<feFlood flood-opacity="0" result="BackgroundImageFix"/>
<feColorMatrix in="SourceAlpha" type="matrix" values="0 0 0 0 0 0 0 0 0 0 0 0 0 0 0 0 0 0 127 0" result="hardAlpha"/>
<feOffset dy="4"/>
<feGaussianBlur stdDeviation="2"/>
<feComposite in2="hardAlpha" operator="out"/>
<feColorMatrix type="matrix" values="0 0 0 0 0 0 0 0 0 0 0 0 0 0 0 0 0 0 0.25 0"/>
<feBlend mode="normal" in2="BackgroundImageFix" result="effect1_dropShadow_9_35"/>
<feColorMatrix in="SourceAlpha" type="matrix" values="0 0 0 0 0 0 0 0 0 0 0 0 0 0 0 0 0 0 127 0" result="hardAlpha"/>
<feOffset dy="4"/>
<feGaussianBlur stdDeviation="2"/>
<feComposite in2="hardAlpha" operator="out"/>
<feColorMatrix type="matrix" values="0 0 0 0 0 0 0 0 0 0 0 0 0 0 0 0 0 0 0.25 0"/>
<feBlend mode="normal" in2="effect1_dropShadow_9_35" result="effect2_dropShadow_9_35"/>
<feBlend mode="normal" in="SourceGraphic" in2="effect2_dropShadow_9_35" result="shape"/>
</filter>
<filter id="filter2_f_9_35" x="0" y="0" width="333" height="187" filterUnits="userSpaceOnUse" color-interpolation-filters="sRGB">
<feFlood flood-opacity="0" result="BackgroundImageFix"/>
<feBlend mode="normal" in="SourceGraphic" in2="BackgroundImageFix" result="shape"/>
<feGaussianBlur stdDeviation="5" result="effect1_foregroundBlur_9_35"/>
</filter>
</defs>
</svg>
