<svg width="353" height="207" viewBox="0 0 353 207" fill="none" xmlns="http://www.w3.org/2000/svg">
<g filter="url(#filter0_dd_4_8)">
<g filter="url(#filter1_f_4_8)">
<rect x="20" y="20" width="313" height="167" rx="20" fill="black"/>
</g>
<path d="M104.612 91.1396C101.907 90.8955 99.8614 90.0605 98.4747 88.6348C97.088 87.209 96.3946 85.3291 96.3946 82.9951C96.3946 80.6611 97.0831 78.7861 98.46 77.3701C99.8467 75.9443 101.898 75.1045 104.612 74.8506V72.4043H108.465V74.8506C111.199 75.1045 113.25 75.9443 114.617 77.3701C115.994 78.7959 116.683 80.6709 116.683 82.9951C116.683 85.3291 115.994 87.209 114.617 88.6348C113.24 90.0508 111.19 90.8857 108.465 91.1396V93.6006H104.612V91.1396ZM104.612 78.1904C102.005 78.835 100.701 80.4365 100.701 82.9951C100.701 85.5537 102.005 87.1553 104.612 87.7998V78.1904ZM108.465 87.7998C111.082 87.1553 112.391 85.5537 112.391 82.9951C112.391 80.4365 111.082 78.835 108.465 78.1904V87.7998ZM132.518 93H128.284C128.148 92.4141 128.079 91.6426 128.079 90.6855C127.337 91.7402 126.595 92.4434 125.853 92.7949C125.12 93.1367 124.285 93.3076 123.348 93.3076C121.961 93.3076 120.838 92.9316 119.979 92.1797C119.129 91.4277 118.704 90.417 118.704 89.1475C118.704 88.2197 118.953 87.3652 119.451 86.584C119.949 85.8027 120.75 85.1924 121.854 84.7529C122.957 84.3037 124.969 83.9717 127.889 83.7568V82.9072C127.889 81.4717 127.171 80.7539 125.735 80.7539C124.202 80.7539 123.348 81.4717 123.172 82.9072L119.144 82.5264C119.407 80.8467 120.203 79.6553 121.531 78.9521C122.859 78.249 124.363 77.8975 126.043 77.8975C127.049 77.8975 127.996 78.0146 128.885 78.249C129.774 78.4834 130.467 78.835 130.965 79.3037C131.463 79.7725 131.8 80.2705 131.976 80.7979C132.151 81.3154 132.239 82.2236 132.239 83.5225V90.2314C132.239 91.5205 132.332 92.4434 132.518 93ZM127.889 85.9102C124.832 86.2129 123.304 87.1357 123.304 88.6787C123.304 89.1963 123.465 89.6455 123.787 90.0264C124.109 90.3975 124.568 90.583 125.164 90.583C125.936 90.583 126.58 90.2656 127.098 89.6309C127.625 88.9863 127.889 88.1953 127.889 87.2578V85.9102ZM135.857 93V78.2051H140.223V83.5371H144.764V78.2051H149.129V93H144.764V86.7158H140.223V93H135.857ZM154.725 93V81.3838H150.638V78.2051H163.045V81.3838H159.075V93H154.725ZM177.723 93H173.489C173.353 92.4141 173.284 91.6426 173.284 90.6855C172.542 91.7402 171.8 92.4434 171.058 92.7949C170.325 93.1367 169.49 93.3076 168.553 93.3076C167.166 93.3076 166.043 92.9316 165.184 92.1797C164.334 91.4277 163.909 90.417 163.909 89.1475C163.909 88.2197 164.158 87.3652 164.656 86.584C165.154 85.8027 165.955 85.1924 167.059 84.7529C168.162 84.3037 170.174 83.9717 173.094 83.7568V82.9072C173.094 81.4717 172.376 80.7539 170.94 80.7539C169.407 80.7539 168.553 81.4717 168.377 82.9072L164.349 82.5264C164.612 80.8467 165.408 79.6553 166.736 78.9521C168.065 78.249 169.568 77.8975 171.248 77.8975C172.254 77.8975 173.201 78.0146 174.09 78.249C174.979 78.4834 175.672 78.835 176.17 79.3037C176.668 79.7725 177.005 80.2705 177.181 80.7979C177.357 81.3154 177.444 82.2236 177.444 83.5225V90.2314C177.444 91.5205 177.537 92.4434 177.723 93ZM173.094 85.9102C170.037 86.2129 168.509 87.1357 168.509 88.6787C168.509 89.1963 168.67 89.6455 168.992 90.0264C169.315 90.3975 169.774 90.583 170.369 90.583C171.141 90.583 171.785 90.2656 172.303 89.6309C172.83 88.9863 173.094 88.1953 173.094 87.2578V85.9102ZM194.07 87.4482C193.904 89.1963 193.211 90.6123 191.99 91.6963C190.779 92.7705 189.212 93.3076 187.288 93.3076C185.198 93.3076 183.494 92.6191 182.176 91.2422C180.867 89.8555 180.213 88.0049 180.213 85.6904C180.213 83.376 180.882 81.501 182.22 80.0654C183.567 78.6201 185.364 77.8975 187.61 77.8975C189.417 77.8975 190.911 78.4395 192.093 79.5234C193.284 80.6074 193.943 81.9648 194.07 83.5957L189.998 83.8301C189.861 82.0527 189.09 81.1641 187.684 81.1641C185.955 81.1641 185.091 82.5801 185.091 85.4121C185.091 87.2969 185.33 88.4932 185.809 89.001C186.297 89.5088 186.888 89.7627 187.581 89.7627C188.929 89.7627 189.734 88.9082 189.998 87.1992L194.07 87.4482ZM198.992 93V81.3838H194.905V78.2051H207.313V81.3838H203.343V93H198.992ZM213.172 91.4619V93H208.807V78.2051H213.172V83.8447C213.172 84.8408 213.133 85.9492 213.055 87.1699C213.797 85.9004 214.446 84.8799 215.003 84.1084L217.903 80.0947V78.2051H222.269V93H217.903V87.7266C217.903 86.5156 217.947 85.2754 218.035 84.0059C217.508 85.2559 216.898 86.3545 216.204 87.3018L213.172 91.4619ZM235.364 83.2881L240.462 93H235.892L232.449 86.3936L230.223 88.752V93H225.857V78.2051H230.223V81.8965C230.223 82.4922 230.203 83.3613 230.164 84.5039C230.506 84.0059 230.921 83.498 231.409 82.9805L235.877 78.2051H239.92L235.364 83.2881ZM254.773 93H250.54C250.403 92.4141 250.335 91.6426 250.335 90.6855C249.593 91.7402 248.851 92.4434 248.108 92.7949C247.376 93.1367 246.541 93.3076 245.604 93.3076C244.217 93.3076 243.094 92.9316 242.234 92.1797C241.385 91.4277 240.96 90.417 240.96 89.1475C240.96 88.2197 241.209 87.3652 241.707 86.584C242.205 85.8027 243.006 85.1924 244.109 84.7529C245.213 84.3037 247.225 83.9717 250.145 83.7568V82.9072C250.145 81.4717 249.427 80.7539 247.991 80.7539C246.458 80.7539 245.604 81.4717 245.428 82.9072L241.399 82.5264C241.663 80.8467 242.459 79.6553 243.787 78.9521C245.115 78.249 246.619 77.8975 248.299 77.8975C249.305 77.8975 250.252 78.0146 251.141 78.249C252.029 78.4834 252.723 78.835 253.221 79.3037C253.719 79.7725 254.056 80.2705 254.232 80.7979C254.407 81.3154 254.495 82.2236 254.495 83.5225V90.2314C254.495 91.5205 254.588 92.4434 254.773 93ZM250.145 85.9102C247.088 86.2129 245.56 87.1357 245.56 88.6787C245.56 89.1963 245.721 89.6455 246.043 90.0264C246.365 90.3975 246.824 90.583 247.42 90.583C248.191 90.583 248.836 90.2656 249.354 89.6309C249.881 88.9863 250.145 88.1953 250.145 87.2578V85.9102ZM112.772 125.462V127H108.406V112.205H112.772V117.845C112.772 118.841 112.732 119.949 112.654 121.17C113.397 119.9 114.046 118.88 114.603 118.108L117.503 114.095V112.205H121.868V127H117.503V121.727C117.503 120.516 117.547 119.275 117.635 118.006C117.107 119.256 116.497 120.354 115.804 121.302L112.772 125.462ZM139.857 131.995V127.146C137.357 126.951 135.457 126.189 134.158 124.861C132.859 123.523 132.21 121.795 132.21 119.676C132.21 117.449 132.923 115.672 134.349 114.344C135.784 113.016 137.62 112.259 139.857 112.073V107.122H143.738V112.073C145.965 112.259 147.791 113.016 149.217 114.344C150.652 115.672 151.37 117.449 151.37 119.676C151.37 121.795 150.721 123.523 149.422 124.861C148.133 126.189 146.238 126.951 143.738 127.146V131.995H139.857ZM139.974 114.52C137.728 115.096 136.605 116.771 136.605 119.544C136.605 122.327 137.728 123.997 139.974 124.554V114.52ZM143.607 124.554C145.853 123.997 146.976 122.327 146.976 119.544C146.976 116.771 145.853 115.096 143.607 114.52V124.554ZM156.717 120.862V118.079H162.444C162.444 117.063 162.195 116.268 161.697 115.691C161.209 115.115 160.511 114.827 159.603 114.827C158.206 114.827 157.357 115.457 157.054 116.717L152.996 116.043C154.08 113.279 156.273 111.897 159.573 111.897C161.878 111.897 163.709 112.601 165.066 114.007C166.434 115.413 167.117 117.293 167.117 119.646C167.117 121.863 166.468 123.694 165.169 125.14C163.87 126.585 161.941 127.308 159.383 127.308C156.053 127.308 153.856 125.862 152.791 122.972L156.805 122.327C157.195 123.704 158.113 124.393 159.559 124.393C160.457 124.393 161.165 124.109 161.683 123.543C162.2 122.967 162.459 122.215 162.459 121.287C162.459 121.18 162.454 121.038 162.444 120.862H156.717ZM169.871 127V112.205H174.236V117.537H178.777V112.205H183.143V127H178.777V120.716H174.236V127H169.871ZM188.738 127V115.384H184.651V112.205H197.059V115.384H193.089V127H188.738ZM211.736 127H207.503C207.366 126.414 207.298 125.643 207.298 124.686C206.556 125.74 205.814 126.443 205.071 126.795C204.339 127.137 203.504 127.308 202.566 127.308C201.18 127.308 200.057 126.932 199.197 126.18C198.348 125.428 197.923 124.417 197.923 123.147C197.923 122.22 198.172 121.365 198.67 120.584C199.168 119.803 199.969 119.192 201.072 118.753C202.176 118.304 204.188 117.972 207.107 117.757V116.907C207.107 115.472 206.39 114.754 204.954 114.754C203.421 114.754 202.566 115.472 202.391 116.907L198.362 116.526C198.626 114.847 199.422 113.655 200.75 112.952C202.078 112.249 203.582 111.897 205.262 111.897C206.268 111.897 207.215 112.015 208.104 112.249C208.992 112.483 209.686 112.835 210.184 113.304C210.682 113.772 211.019 114.271 211.194 114.798C211.37 115.315 211.458 116.224 211.458 117.522V124.231C211.458 125.521 211.551 126.443 211.736 127ZM207.107 119.91C204.051 120.213 202.523 121.136 202.523 122.679C202.523 123.196 202.684 123.646 203.006 124.026C203.328 124.397 203.787 124.583 204.383 124.583C205.154 124.583 205.799 124.266 206.316 123.631C206.844 122.986 207.107 122.195 207.107 121.258V119.91ZM218.738 120.701V118.167C220.262 118.167 221.204 117.996 221.565 117.654C221.927 117.312 222.107 116.912 222.107 116.453C222.107 115.965 221.937 115.569 221.595 115.267C221.263 114.964 220.789 114.812 220.174 114.812C218.875 114.812 218.099 115.433 217.845 116.673L213.934 116.028C214.588 113.274 216.785 111.897 220.525 111.897C222.518 111.897 224.007 112.288 224.993 113.069C225.989 113.841 226.487 114.822 226.487 116.014C226.487 117.439 225.574 118.475 223.748 119.119C225.906 119.627 226.985 120.794 226.985 122.62C226.985 124.026 226.429 125.159 225.315 126.019C224.212 126.878 222.61 127.308 220.511 127.308C218.226 127.308 216.575 126.844 215.56 125.916C214.544 124.988 213.914 123.978 213.67 122.884L217.64 122.269C217.972 123.733 218.802 124.466 220.13 124.466C221.634 124.466 222.386 123.831 222.386 122.562C222.386 122.083 222.254 121.697 221.99 121.404C221.727 121.102 221.385 120.911 220.965 120.833C220.545 120.745 219.803 120.701 218.738 120.701ZM234.119 125.462V127H229.754V112.205H234.119V117.845C234.119 118.841 234.08 119.949 234.002 121.17C234.744 119.9 235.394 118.88 235.95 118.108L238.851 114.095V112.205H243.216V127H238.851V121.727C238.851 120.516 238.895 119.275 238.982 118.006C238.455 119.256 237.845 120.354 237.151 121.302L234.119 125.462Z" fill="#F2E3E3"/>
</g>
<defs>
<filter id="filter0_dd_4_8" x="16" y="20" width="321" height="175" filterUnits="userSpaceOnUse" color-interpolation-filters="sRGB">
<feFlood flood-opacity="0" result="BackgroundImageFix"/>
<feColorMatrix in="SourceAlpha" type="matrix" values="0 0 0 0 0 0 0 0 0 0 0 0 0 0 0 0 0 0 127 0" result="hardAlpha"/>
<feOffset dy="4"/>
<feGaussianBlur stdDeviation="2"/>
<feComposite in2="hardAlpha" operator="out"/>
<feColorMatrix type="matrix" values="0 0 0 0 0 0 0 0 0 0 0 0 0 0 0 0 0 0 0.25 0"/>
<feBlend mode="normal" in2="BackgroundImageFix" result="effect1_dropShadow_4_8"/>
<feColorMatrix in="SourceAlpha" type="matrix" values="0 0 0 0 0 0 0 0 0 0 0 0 0 0 0 0 0 0 127 0" result="hardAlpha"/>
<feOffset dy="4"/>
<feGaussianBlur stdDeviation="2"/>
<feComposite in2="hardAlpha" operator="out"/>
<feColorMatrix type="matrix" values="0 0 0 0 0 0 0 0 0 0 0 0 0 0 0 0 0 0 0.25 0"/>
<feBlend mode="normal" in2="effect1_dropShadow_4_8" result="effect2_dropShadow_4_8"/>
<feBlend mode="normal" in="SourceGraphic" in2="effect2_dropShadow_4_8" result="shape"/>
</filter>
<filter id="filter1_f_4_8" x="0" y="0" width="353" height="207" filterUnits="userSpaceOnUse" color-interpolation-filters="sRGB">
<feFlood flood-opacity="0" result="BackgroundImageFix"/>
<feBlend mode="normal" in="SourceGraphic" in2="BackgroundImageFix" result="shape"/>
<feGaussianBlur stdDeviation="10" result="effect1_foregroundBlur_4_8"/>
</filter>
</defs>
</svg>
